# Blender 5.1.1
# www.blender.org
mtllib SpikeTrap.mtl
o OPM0041_OPM0041_0
v 0.300000 0.020000 -0.300000
v -0.300000 0.020000 0.300000
v 0.300000 0.020000 0.300000
v -0.300000 0.020000 -0.300000
v -0.300000 0.000000 0.300000
v -0.300000 0.020000 0.300000
v 0.300000 0.020000 -0.300000
v -0.300000 -0.000000 -0.300000
v -0.300000 0.020000 -0.300000
v 0.300000 0.020000 0.300000
v 0.300000 -0.000000 -0.300000
v 0.300000 0.020000 -0.300000
v -0.300000 0.020000 0.300000
v 0.300000 0.000000 0.300000
v 0.300000 0.020000 0.300000
v -0.300000 0.020000 -0.300000
v -0.300000 -0.000000 -0.300000
v 0.300000 -0.000000 -0.300000
v 0.300000 0.000000 0.300000
v -0.300000 0.000000 0.300000
v -0.267480 0.019733 0.247147
v -0.240000 0.184794 0.240000
v -0.268123 0.019733 0.236087
v -0.254377 0.019733 0.264485
v -0.262653 0.019733 0.257119
v -0.243913 0.019733 0.268123
v -0.232853 0.019733 0.267480
v -0.222881 0.019733 0.262653
v -0.215515 0.019733 0.254378
v -0.211877 0.019733 0.243913
v -0.212520 0.019733 0.232853
v -0.217347 0.019733 0.222881
v -0.225623 0.019733 0.215515
v -0.236087 0.019733 0.211877
v -0.225623 0.019733 0.215515
v -0.247147 0.019733 0.212520
v -0.257119 0.019733 0.217347
v -0.264485 0.019733 0.225623
v -0.254035 0.019733 0.144683
v -0.240000 0.184794 0.120000
v -0.262412 0.019733 0.137434
v -0.267378 0.019733 0.127530
v -0.243520 0.019733 0.148175
v -0.232470 0.019733 0.147378
v -0.222566 0.019733 0.142412
v -0.215317 0.019733 0.134035
v -0.211825 0.019733 0.123520
v -0.212622 0.019733 0.112470
v -0.217588 0.019733 0.102566
v -0.225965 0.019733 0.095317
v -0.236480 0.019733 0.091825
v -0.247530 0.019733 0.092622
v -0.257434 0.019733 0.097588
v -0.264683 0.019733 0.105965
v -0.257434 0.019733 0.097588
v -0.268175 0.019733 0.116480
v -0.244258 0.019733 0.028073
v -0.240000 0.184794 -0.000000
v -0.254677 0.019733 0.024307
v -0.262862 0.019733 0.016840
v -0.233191 0.019733 0.027566
v -0.223160 0.019733 0.022862
v -0.215693 0.019733 0.014677
v -0.211927 0.019733 0.004258
v -0.212434 0.019733 -0.006809
v -0.217138 0.019733 -0.016840
v -0.225323 0.019733 -0.024307
v -0.235742 0.019733 -0.028073
v -0.246809 0.019733 -0.027566
v -0.256840 0.019733 -0.022862
v -0.264307 0.019733 -0.014677
v -0.268073 0.019733 -0.004258
v -0.264307 0.019733 -0.014677
v -0.267566 0.019733 0.006809
v -0.256633 0.019733 -0.143013
v -0.240000 0.184794 -0.120000
v -0.246560 0.019733 -0.147626
v -0.235488 0.019733 -0.148034
v -0.264173 0.019733 -0.134896
v -0.268034 0.019733 -0.124512
v -0.267626 0.019733 -0.113440
v -0.263013 0.019733 -0.103367
v -0.254896 0.019733 -0.095827
v -0.244512 0.019733 -0.091966
v -0.233440 0.019733 -0.092374
v -0.223367 0.019733 -0.096987
v -0.215827 0.019733 -0.105104
v -0.211966 0.019733 -0.115488
v -0.212374 0.019733 -0.126560
v -0.216987 0.019733 -0.136633
v -0.212374 0.019733 -0.126560
v -0.225104 0.019733 -0.144173
v -0.266606 0.019733 -0.230082
v -0.240000 0.184794 -0.240000
v -0.268376 0.019733 -0.241018
v -0.265826 0.019733 -0.251800
v -0.260785 0.019733 -0.220655
v -0.251800 0.019733 -0.214174
v -0.241018 0.019733 -0.211624
v -0.230082 0.019733 -0.213394
v -0.220655 0.019733 -0.219215
v -0.214174 0.019733 -0.228200
v -0.211624 0.019733 -0.238982
v -0.213394 0.019733 -0.249918
v -0.219215 0.019733 -0.259345
v -0.228200 0.019733 -0.265826
v -0.238982 0.019733 -0.268376
v -0.249918 0.019733 -0.266606
v -0.238982 0.019733 -0.268376
v -0.259345 0.019733 -0.260785
v 0.262380 0.020000 -0.222526
v 0.240000 0.185062 -0.240000
v 0.253990 0.020000 -0.215291
v 0.268182 0.020000 -0.243469
v 0.267364 0.020000 -0.232420
v 0.264709 0.020000 -0.253990
v 0.257474 0.020000 -0.262380
v 0.247580 0.020000 -0.267364
v 0.236531 0.020000 -0.268182
v 0.226010 0.020000 -0.264709
v 0.217620 0.020000 -0.257474
v 0.212636 0.020000 -0.247580
v 0.211818 0.020000 -0.236531
v 0.215291 0.020000 -0.226011
v 0.211818 0.020000 -0.236531
v 0.222526 0.020000 -0.217620
v 0.232420 0.020000 -0.212636
v 0.243469 0.020000 -0.211818
v -0.134119 0.020000 0.024635
v -0.120000 0.185062 -0.000000
v -0.142472 0.020000 0.017356
v -0.112564 0.020000 0.027403
v -0.123617 0.020000 0.028163
v -0.102644 0.020000 0.022472
v -0.095365 0.020000 0.014119
v -0.091837 0.020000 0.003617
v -0.092597 0.020000 -0.007436
v -0.097528 0.020000 -0.017356
v -0.105881 0.020000 -0.024635
v -0.116383 0.020000 -0.028163
v -0.127436 0.020000 -0.027403
v -0.137356 0.020000 -0.022472
v -0.127436 0.020000 -0.027403
v -0.144635 0.020000 -0.014119
v -0.148163 0.020000 -0.003617
v -0.147403 0.020000 0.007436
v 0.229921 0.020000 0.146545
v 0.240000 0.185062 0.120000
v 0.220530 0.020000 0.140667
v 0.251643 0.020000 0.145897
v 0.240846 0.020000 0.148382
v 0.260667 0.020000 0.139470
v 0.266545 0.020000 0.130079
v 0.268382 0.020000 0.119154
v 0.265897 0.020000 0.108357
v 0.259470 0.020000 0.099333
v 0.250079 0.020000 0.093455
v 0.239154 0.020000 0.091618
v 0.228357 0.020000 0.094103
v 0.219333 0.020000 0.100530
v 0.228357 0.020000 0.094103
v 0.213455 0.020000 0.109921
v 0.211618 0.020000 0.120846
v 0.214103 0.020000 0.131643
v 0.027498 0.020000 0.247077
v 0.000000 0.185062 0.240000
v 0.022696 0.020000 0.257062
v 0.024449 0.020000 0.225560
v 0.028113 0.020000 0.236016
v 0.017062 0.020000 0.217304
v 0.007077 0.020000 0.212502
v -0.003984 0.020000 0.211887
v -0.014440 0.020000 0.215551
v -0.022696 0.020000 0.222938
v -0.027498 0.020000 0.232923
v -0.028113 0.020000 0.243984
v -0.024449 0.020000 0.254440
v -0.017062 0.020000 0.262697
v -0.024449 0.020000 0.254440
v -0.007077 0.020000 0.267498
v 0.003984 0.020000 0.268113
v 0.014440 0.020000 0.264449
v 0.135140 0.020000 0.264021
v 0.120000 0.185062 0.240000
v 0.124794 0.020000 0.267987
v 0.113720 0.020000 0.267691
v 0.143180 0.020000 0.256399
v 0.147691 0.020000 0.246281
v 0.147987 0.020000 0.235206
v 0.144021 0.020000 0.224861
v 0.136399 0.020000 0.216820
v 0.126280 0.020000 0.212309
v 0.115206 0.020000 0.212013
v 0.104860 0.020000 0.215979
v 0.096820 0.020000 0.223601
v 0.092309 0.020000 0.233720
v 0.092013 0.020000 0.244795
v 0.095979 0.020000 0.255140
v 0.092013 0.020000 0.244795
v 0.103601 0.020000 0.263180
v 0.025924 0.020000 0.011585
v 0.000000 0.185062 -0.000000
v 0.019517 0.020000 0.020623
v 0.010139 0.020000 0.026522
v 0.028383 0.020000 0.000782
v 0.026522 0.020000 -0.010139
v 0.020623 0.020000 -0.019517
v 0.011585 0.020000 -0.025924
v 0.000782 0.020000 -0.028384
v -0.010139 0.020000 -0.026522
v -0.019517 0.020000 -0.020623
v -0.025924 0.020000 -0.011585
v -0.028383 0.020000 -0.000782
v -0.026522 0.020000 0.010139
v -0.020623 0.020000 0.019517
v -0.011585 0.020000 0.025924
v -0.020623 0.020000 0.019517
v -0.000782 0.020000 0.028383
v -0.115061 0.020000 -0.267961
v -0.120000 0.185062 -0.240000
v -0.104737 0.020000 -0.263943
v -0.096736 0.020000 -0.256279
v -0.126137 0.020000 -0.267723
v -0.136279 0.020000 -0.263264
v -0.143943 0.020000 -0.255263
v -0.147961 0.020000 -0.244939
v -0.147723 0.020000 -0.233863
v -0.143264 0.020000 -0.223721
v -0.135263 0.020000 -0.216057
v -0.124939 0.020000 -0.212039
v -0.113863 0.020000 -0.212277
v -0.103721 0.020000 -0.216736
v -0.096057 0.020000 -0.224737
v -0.092039 0.020000 -0.235061
v -0.096057 0.020000 -0.224737
v -0.092277 0.020000 -0.246137
v 0.220325 0.020000 0.020472
v 0.240000 0.185062 -0.000000
v 0.213988 0.020000 0.011384
v 0.211611 0.020000 0.000563
v 0.229657 0.020000 0.026443
v 0.240564 0.020000 0.028389
v 0.251384 0.020000 0.026012
v 0.260472 0.020000 0.019675
v 0.266443 0.020000 0.010343
v 0.268389 0.020000 -0.000564
v 0.266012 0.020000 -0.011384
v 0.259675 0.020000 -0.020472
v 0.250343 0.020000 -0.026443
v 0.239437 0.020000 -0.028389
v 0.228616 0.020000 -0.026012
v 0.219528 0.020000 -0.019675
v 0.228616 0.020000 -0.026012
v 0.213557 0.020000 -0.010343
v -0.146838 0.020000 0.230730
v -0.120000 0.185062 0.240000
v -0.141248 0.020000 0.221165
v -0.132423 0.020000 0.214467
v -0.148343 0.020000 0.241706
v -0.145533 0.020000 0.252423
v -0.138835 0.020000 0.261248
v -0.129270 0.020000 0.266838
v -0.118294 0.020000 0.268343
v -0.107577 0.020000 0.265533
v -0.098752 0.020000 0.258835
v -0.093162 0.020000 0.249270
v -0.091657 0.020000 0.238294
v -0.094467 0.020000 0.227577
v -0.101165 0.020000 0.218752
v -0.110730 0.020000 0.213162
v -0.101165 0.020000 0.218752
v -0.121706 0.020000 0.211657
v 0.147055 0.020000 0.128619
v 0.120000 0.185062 0.120000
v 0.141697 0.020000 0.138316
v 0.133036 0.020000 0.145225
v 0.148293 0.020000 0.117609
v 0.145225 0.020000 0.106964
v 0.138316 0.020000 0.098303
v 0.128619 0.020000 0.092945
v 0.117609 0.020000 0.091707
v 0.106964 0.020000 0.094775
v 0.098303 0.020000 0.101684
v 0.092945 0.020000 0.111381
v 0.091707 0.020000 0.122391
v 0.094775 0.020000 0.133036
v 0.101684 0.020000 0.141697
v 0.111381 0.020000 0.147055
v 0.101684 0.020000 0.141697
v 0.122391 0.020000 0.148293
v -0.026007 0.020000 -0.228603
v 0.000000 0.185062 -0.240000
v -0.028388 0.020000 -0.239423
v -0.026448 0.020000 -0.250331
v -0.019666 0.020000 -0.219519
v -0.010331 0.020000 -0.213552
v 0.000577 0.020000 -0.211612
v 0.011397 0.020000 -0.213993
v 0.020481 0.020000 -0.220334
v 0.026448 0.020000 -0.229669
v 0.028388 0.020000 -0.240577
v 0.026007 0.020000 -0.251397
v 0.019666 0.020000 -0.260481
v 0.010331 0.020000 -0.266448
v -0.000577 0.020000 -0.268388
v -0.011397 0.020000 -0.266007
v -0.000577 0.020000 -0.268388
v -0.020481 0.020000 -0.259666
v 0.116679 0.020000 -0.148199
v 0.120000 0.185062 -0.120000
v 0.127724 0.020000 -0.147324
v 0.137592 0.020000 -0.142288
v 0.106141 0.020000 -0.144782
v 0.097712 0.020000 -0.137592
v 0.092676 0.020000 -0.127724
v 0.091801 0.020000 -0.116679
v 0.095218 0.020000 -0.106141
v 0.102408 0.020000 -0.097712
v 0.112276 0.020000 -0.092676
v 0.123321 0.020000 -0.091801
v 0.133859 0.020000 -0.095218
v 0.142288 0.020000 -0.102408
v 0.147324 0.020000 -0.112276
v 0.148199 0.020000 -0.123321
v 0.147324 0.020000 -0.112276
v 0.144782 0.020000 -0.133859
v -0.148324 0.020000 0.122001
v -0.120000 0.185062 0.120000
v -0.146933 0.020000 0.111009
v -0.141443 0.020000 0.101387
v -0.145402 0.020000 0.132687
v -0.138613 0.020000 0.141443
v -0.128991 0.020000 0.146933
v -0.117999 0.020000 0.148324
v -0.107313 0.020000 0.145402
v -0.098557 0.020000 0.138613
v -0.093067 0.020000 0.128991
v -0.091676 0.020000 0.117999
v -0.094598 0.020000 0.107313
v -0.101387 0.020000 0.098557
v -0.111009 0.020000 0.093067
v -0.122001 0.020000 0.091676
v -0.111009 0.020000 0.093067
v -0.132687 0.020000 0.094598
v -0.015381 0.020000 -0.143868
v 0.000000 0.185062 -0.120000
v -0.005076 0.020000 -0.147937
v 0.006001 0.020000 -0.147753
v -0.023344 0.020000 -0.136165
v -0.027753 0.020000 -0.126001
v -0.027937 0.020000 -0.114924
v -0.023868 0.020000 -0.104619
v -0.016165 0.020000 -0.096656
v -0.006001 0.020000 -0.092247
v 0.005076 0.020000 -0.092063
v 0.015381 0.020000 -0.096132
v 0.023344 0.020000 -0.103835
v 0.027753 0.020000 -0.113999
v 0.027937 0.020000 -0.125076
v 0.023868 0.020000 -0.135381
v 0.027937 0.020000 -0.125076
v 0.016165 0.020000 -0.143344
v 0.214222 0.020000 0.228095
v 0.240000 0.185062 0.240000
v 0.220740 0.020000 0.219137
v 0.230190 0.020000 0.213354
v 0.211628 0.020000 0.238867
v 0.213354 0.020000 0.249810
v 0.219137 0.020000 0.259260
v 0.228095 0.020000 0.265778
v 0.238867 0.020000 0.268372
v 0.249810 0.020000 0.266646
v 0.259260 0.020000 0.260863
v 0.265778 0.020000 0.251905
v 0.268372 0.020000 0.241134
v 0.266646 0.020000 0.230190
v 0.260863 0.020000 0.220740
v 0.251905 0.020000 0.214222
v 0.260863 0.020000 0.220740
v 0.241133 0.020000 0.211628
v 0.110646 0.020000 0.026809
v 0.120000 0.185062 -0.000000
v 0.101099 0.020000 0.021189
v 0.094429 0.020000 0.012343
v 0.121618 0.020000 0.028348
v 0.132343 0.020000 0.025571
v 0.141189 0.020000 0.018901
v 0.146809 0.020000 0.009354
v 0.148348 0.020000 -0.001618
v 0.145571 0.020000 -0.012343
v 0.138901 0.020000 -0.021189
v 0.129354 0.020000 -0.026809
v 0.118382 0.020000 -0.028348
v 0.107657 0.020000 -0.025571
v 0.098811 0.020000 -0.018901
v 0.093191 0.020000 -0.009354
v 0.098811 0.020000 -0.018901
v 0.091652 0.020000 0.001618
v -0.148291 0.020000 -0.122420
v -0.120000 0.185062 -0.120000
v -0.145211 0.020000 -0.133063
v -0.138293 0.020000 -0.141716
v -0.147064 0.020000 -0.111410
v -0.141716 0.020000 -0.101707
v -0.133063 0.020000 -0.094789
v -0.122420 0.020000 -0.091709
v -0.111410 0.020000 -0.092936
v -0.101707 0.020000 -0.098284
v -0.094789 0.020000 -0.106937
v -0.091709 0.020000 -0.117580
v -0.092936 0.020000 -0.128590
v -0.098284 0.020000 -0.138293
v -0.106937 0.020000 -0.145211
v -0.117580 0.020000 -0.148291
v -0.106937 0.020000 -0.145211
v -0.128590 0.020000 -0.147064
v -0.024256 0.020000 0.134761
v 0.000000 0.185062 0.120000
v -0.028058 0.020000 0.124355
v -0.027589 0.020000 0.113286
v -0.016760 0.020000 0.142920
v -0.006714 0.020000 0.147589
v 0.004355 0.020000 0.148058
v 0.014761 0.020000 0.144256
v 0.022920 0.020000 0.136760
v 0.027589 0.020000 0.126714
v 0.028058 0.020000 0.115645
v 0.024256 0.020000 0.105239
v 0.016760 0.020000 0.097080
v 0.006714 0.020000 0.092411
v -0.004355 0.020000 0.091942
v -0.014761 0.020000 0.095744
v -0.004355 0.020000 0.091942
v -0.022920 0.020000 0.103240
v 0.142528 0.020000 -0.222717
v 0.120000 0.185062 -0.240000
v 0.134199 0.020000 -0.215411
v 0.123709 0.020000 -0.211849
v 0.147427 0.020000 -0.232654
v 0.148151 0.020000 -0.243709
v 0.144589 0.020000 -0.254199
v 0.137283 0.020000 -0.262528
v 0.127346 0.020000 -0.267427
v 0.116291 0.020000 -0.268151
v 0.105801 0.020000 -0.264589
v 0.097472 0.020000 -0.257283
v 0.092573 0.020000 -0.247347
v 0.091849 0.020000 -0.236291
v 0.095411 0.020000 -0.225801
v 0.102717 0.020000 -0.217472
v 0.095411 0.020000 -0.225801
v 0.112654 0.020000 -0.212573
v 0.234886 0.020000 -0.092070
v 0.240000 0.185062 -0.120000
v 0.224587 0.020000 -0.096153
v 0.216635 0.020000 -0.103866
v 0.245964 0.020000 -0.092239
v 0.256134 0.020000 -0.096635
v 0.263847 0.020000 -0.104587
v 0.267930 0.020000 -0.114886
v 0.267761 0.020000 -0.125964
v 0.263365 0.020000 -0.136134
v 0.255413 0.020000 -0.143847
v 0.245114 0.020000 -0.147930
v 0.234036 0.020000 -0.147761
v 0.223866 0.020000 -0.143365
v 0.216153 0.020000 -0.135413
v 0.212070 0.020000 -0.125114
v 0.216153 0.020000 -0.135413
v 0.212239 0.020000 -0.114036
vn -0.0000 1.0000 -0.0000
vn -1.0000 -0.0000 -0.0000
vn -0.0000 -0.0000 -1.0000
vn 1.0000 -0.0000 -0.0000
vn -0.0000 -0.0000 1.0000
vn -0.9538 0.1695 0.2481
vn -0.9761 0.1695 -0.1358
vn -0.4990 0.1695 0.8498
vn -0.7863 0.1695 0.5942
vn -0.1358 0.1695 0.9761
vn 0.2481 0.1695 0.9538
vn 0.5942 0.1695 0.7863
vn 0.8498 0.1695 0.4990
vn 0.9761 0.1695 0.1358
vn 0.9538 0.1695 -0.2481
vn 0.7863 0.1695 -0.5942
vn 0.4992 0.1695 -0.8497
vn 0.1358 0.1695 -0.9761
vn 0.4989 0.1695 -0.8500
vn -0.2481 0.1695 -0.9538
vn -0.5942 0.1695 -0.7863
vn -0.8498 0.1695 -0.4990
vn -0.4871 0.1695 0.8567
vn -0.7779 0.1695 0.6051
vn -0.9502 0.1695 0.2613
vn -0.1222 0.1695 0.9779
vn 0.2613 0.1695 0.9502
vn 0.6051 0.1695 0.7779
vn 0.8567 0.1695 0.4871
vn 0.9779 0.1695 0.1222
vn 0.9502 0.1695 -0.2613
vn 0.7779 0.1695 -0.6051
vn 0.4871 0.1695 -0.8567
vn 0.1222 0.1695 -0.9779
vn -0.2613 0.1695 -0.9502
vn -0.6050 0.1695 -0.7780
vn -0.8567 0.1695 -0.4871
vn -0.6052 0.1695 -0.7778
vn -0.9779 0.1695 -0.1222
vn -0.1478 0.1695 0.9744
vn -0.5094 0.1695 0.8437
vn -0.7935 0.1695 0.5845
vn 0.2363 0.1695 0.9568
vn 0.5845 0.1695 0.7935
vn 0.8437 0.1695 0.5094
vn 0.9744 0.1695 0.1478
vn 0.9568 0.1695 -0.2363
vn 0.7935 0.1695 -0.5845
vn 0.5094 0.1695 -0.8437
vn 0.1478 0.1695 -0.9744
vn -0.2363 0.1695 -0.9568
vn -0.5845 0.1695 -0.7935
vn -0.8435 0.1695 -0.5096
vn -0.9744 0.1695 -0.1478
vn -0.8438 0.1695 -0.5093
vn -0.9568 0.1695 0.2363
vn -0.5773 0.1695 -0.7987
vn -0.2277 0.1695 -0.9589
vn 0.1566 0.1695 -0.9730
vn -0.8390 0.1695 -0.5170
vn -0.9730 0.1695 -0.1566
vn -0.9589 0.1695 0.2277
vn -0.7987 0.1695 0.5773
vn -0.5170 0.1695 0.8390
vn -0.1566 0.1695 0.9730
vn 0.2277 0.1695 0.9589
vn 0.5773 0.1695 0.7987
vn 0.8390 0.1695 0.5170
vn 0.9730 0.1695 0.1566
vn 0.9589 0.1695 -0.2274
vn 0.7987 0.1695 -0.5773
vn 0.9588 0.1695 -0.2278
vn 0.5170 0.1695 -0.8390
vn -0.9235 0.1695 0.3442
vn -0.9849 0.1695 -0.0354
vn -0.8964 0.1695 -0.4095
vn -0.7214 0.1695 0.6714
vn -0.4095 0.1695 0.8964
vn -0.0354 0.1695 0.9849
vn 0.3442 0.1695 0.9234
vn 0.6714 0.1695 0.7214
vn 0.8964 0.1695 0.4095
vn 0.9849 0.1695 0.0354
vn 0.9234 0.1695 -0.3442
vn 0.7214 0.1695 -0.6714
vn 0.4095 0.1695 -0.8964
vn 0.0356 0.1695 -0.9849
vn -0.3442 0.1695 -0.9234
vn 0.0352 0.1695 -0.9849
vn -0.6714 0.1695 -0.7214
vn 0.7768 0.1695 0.6065
vn 0.4856 0.1695 0.8576
vn 0.9781 0.1695 -0.1204
vn 0.9497 0.1695 0.2631
vn 0.8576 0.1695 -0.4856
vn 0.6065 0.1695 -0.7768
vn 0.2631 0.1695 -0.9497
vn -0.1204 0.1695 -0.9781
vn -0.4856 0.1695 -0.8576
vn -0.7768 0.1695 -0.6065
vn -0.9498 0.1695 -0.2631
vn -0.9782 0.1695 0.1203
vn -0.8576 0.1695 0.4856
vn -0.9781 0.1695 0.1206
vn -0.6065 0.1695 0.7768
vn -0.2631 0.1695 0.9497
vn 0.1204 0.1695 0.9781
vn -0.4901 0.1695 0.8550
vn -0.7800 0.1695 0.6024
vn 0.2581 0.1695 0.9511
vn -0.1255 0.1695 0.9775
vn 0.6024 0.1695 0.7800
vn 0.8550 0.1695 0.4901
vn 0.9775 0.1695 0.1255
vn 0.9511 0.1695 -0.2581
vn 0.7800 0.1695 -0.6024
vn 0.4901 0.1695 -0.8550
vn 0.1255 0.1695 -0.9775
vn -0.2579 0.1695 -0.9512
vn -0.6024 0.1695 -0.7800
vn -0.2582 0.1695 -0.9511
vn -0.8550 0.1695 -0.4901
vn -0.9775 0.1695 -0.1255
vn -0.9511 0.1695 0.2581
vn -0.3499 0.1695 0.9213
vn -0.6758 0.1695 0.7173
vn 0.4041 0.1695 0.8988
vn 0.0294 0.1695 0.9851
vn 0.7173 0.1695 0.6758
vn 0.9213 0.1695 0.3499
vn 0.9851 0.1695 -0.0294
vn 0.8988 0.1695 -0.4041
vn 0.6758 0.1695 -0.7173
vn 0.3499 0.1695 -0.9213
vn -0.0294 0.1695 -0.9851
vn -0.4039 0.1695 -0.8989
vn -0.7173 0.1695 -0.6758
vn -0.4044 0.1695 -0.8988
vn -0.9213 0.1695 -0.3499
vn -0.9851 0.1695 0.0294
vn -0.8988 0.1695 0.4041
vn 0.9544 0.1695 0.2456
vn 0.7878 0.1695 0.5922
vn 0.8486 0.1695 -0.5012
vn 0.9758 0.1695 -0.1383
vn 0.5922 0.1695 -0.7878
vn 0.2456 0.1695 -0.9544
vn -0.1383 0.1695 -0.9758
vn -0.5012 0.1695 -0.8486
vn -0.7878 0.1695 -0.5922
vn -0.9544 0.1695 -0.2456
vn -0.9758 0.1695 0.1383
vn -0.8487 0.1695 0.5010
vn -0.5922 0.1695 0.7878
vn -0.8485 0.1695 0.5014
vn -0.2456 0.1695 0.9544
vn 0.1383 0.1695 0.9758
vn 0.5012 0.1695 0.8486
vn 0.5255 0.1695 0.8337
vn 0.1664 0.1695 0.9714
vn -0.2180 0.1695 0.9611
vn 0.8045 0.1695 0.5692
vn 0.9611 0.1695 0.2180
vn 0.9714 0.1695 -0.1664
vn 0.8337 0.1695 -0.5255
vn 0.5692 0.1695 -0.8045
vn 0.2180 0.1695 -0.9611
vn -0.1664 0.1695 -0.9714
vn -0.5255 0.1695 -0.8337
vn -0.8045 0.1695 -0.5692
vn -0.9611 0.1695 -0.2180
vn -0.9714 0.1695 0.1663
vn -0.8337 0.1695 0.5255
vn -0.9713 0.1695 0.1666
vn -0.5692 0.1695 0.8045
vn 0.8998 0.1695 0.4021
vn 0.6774 0.1695 0.7158
vn 0.3519 0.1695 0.9206
vn 0.9852 0.1695 0.0271
vn 0.9206 0.1695 -0.3519
vn 0.7158 0.1695 -0.6774
vn 0.4021 0.1695 -0.8998
vn 0.0271 0.1695 -0.9852
vn -0.3519 0.1695 -0.9205
vn -0.6774 0.1695 -0.7158
vn -0.8998 0.1695 -0.4021
vn -0.9852 0.1695 -0.0271
vn -0.9206 0.1695 0.3519
vn -0.7159 0.1695 0.6773
vn -0.4021 0.1695 0.8998
vn -0.7157 0.1695 0.6775
vn -0.0271 0.1695 0.9852
vn 0.1714 0.1695 -0.9705
vn 0.5298 0.1695 -0.8310
vn 0.8075 0.1695 -0.5650
vn -0.2130 0.1695 -0.9622
vn -0.5650 0.1695 -0.8075
vn -0.8310 0.1695 -0.5298
vn -0.9705 0.1695 -0.1714
vn -0.9622 0.1695 0.2130
vn -0.8075 0.1695 0.5650
vn -0.5298 0.1695 0.8310
vn -0.1714 0.1695 0.9705
vn 0.2130 0.1695 0.9622
vn 0.5650 0.1695 0.8075
vn 0.8309 0.1695 0.5299
vn 0.9705 0.1695 0.1714
vn 0.8311 0.1695 0.5296
vn 0.9622 0.1695 -0.2130
vn -0.6829 0.1695 0.7106
vn -0.9028 0.1695 0.3952
vn -0.9853 0.1695 0.0195
vn -0.3590 0.1695 0.9178
vn 0.0196 0.1695 0.9853
vn 0.3952 0.1695 0.9028
vn 0.7106 0.1695 0.6829
vn 0.9178 0.1695 0.3590
vn 0.9853 0.1695 -0.0196
vn 0.9028 0.1695 -0.3952
vn 0.6829 0.1695 -0.7106
vn 0.3590 0.1695 -0.9178
vn -0.0195 0.1695 -0.9853
vn -0.3950 0.1695 -0.9029
vn -0.7106 0.1695 -0.6829
vn -0.3953 0.1695 -0.9028
vn -0.9178 0.1695 -0.3590
vn -0.9315 0.1695 -0.3218
vn -0.7375 0.1695 -0.6537
vn -0.4312 0.1695 -0.8862
vn -0.9837 0.1695 0.0592
vn -0.8862 0.1695 0.4312
vn -0.6537 0.1695 0.7375
vn -0.3218 0.1695 0.9315
vn 0.0592 0.1695 0.9837
vn 0.4312 0.1695 0.8862
vn 0.7375 0.1695 0.6537
vn 0.9315 0.1695 0.3218
vn 0.9837 0.1695 -0.0592
vn 0.8862 0.1695 -0.4312
vn 0.6539 0.1695 -0.7373
vn 0.3218 0.1695 -0.9315
vn 0.6536 0.1695 -0.7376
vn -0.0592 0.1695 -0.9837
vn 0.9390 0.1695 0.2991
vn 0.7531 0.1695 0.6357
vn 0.4524 0.1695 0.8755
vn 0.9820 0.1695 -0.0830
vn 0.8755 0.1695 -0.4524
vn 0.6357 0.1695 -0.7531
vn 0.2991 0.1695 -0.9390
vn -0.0830 0.1695 -0.9820
vn -0.4524 0.1695 -0.8755
vn -0.7531 0.1695 -0.6357
vn -0.9390 0.1695 -0.2991
vn -0.9820 0.1695 0.0830
vn -0.8755 0.1695 0.4524
vn -0.6359 0.1695 0.7529
vn -0.2991 0.1695 0.9390
vn -0.6356 0.1695 0.7532
vn 0.0830 0.1695 0.9820
vn -0.9027 0.1695 0.3956
vn -0.9853 0.1695 0.0200
vn -0.9180 0.1695 -0.3586
vn -0.6826 0.1695 0.7109
vn -0.3586 0.1695 0.9180
vn 0.0200 0.1695 0.9853
vn 0.3956 0.1695 0.9027
vn 0.7109 0.1695 0.6826
vn 0.9180 0.1695 0.3586
vn 0.9853 0.1695 -0.0200
vn 0.9027 0.1695 -0.3956
vn 0.6826 0.1695 -0.7109
vn 0.3586 0.1695 -0.9180
vn -0.0198 0.1695 -0.9853
vn -0.3956 0.1695 -0.9027
vn -0.0202 0.1695 -0.9853
vn -0.7109 0.1695 -0.6826
vn -0.1153 0.1695 -0.9788
vn 0.2681 0.1695 -0.9484
vn 0.6106 0.1695 -0.7736
vn -0.4810 0.1695 -0.8602
vn -0.7736 0.1695 -0.6106
vn -0.9484 0.1695 -0.2681
vn -0.9788 0.1695 0.1153
vn -0.8602 0.1695 0.4810
vn -0.6106 0.1695 0.7736
vn -0.2681 0.1695 0.9484
vn 0.1153 0.1695 0.9788
vn 0.4810 0.1695 0.8602
vn 0.7736 0.1695 0.6106
vn 0.9483 0.1695 0.2683
vn 0.9788 0.1695 -0.1153
vn 0.9484 0.1695 0.2679
vn 0.8602 0.1695 -0.4810
vn -0.9831 0.1695 0.0694
vn -0.9348 0.1695 -0.3121
vn -0.7442 0.1695 -0.6460
vn -0.8817 0.1695 0.4404
vn -0.6460 0.1695 0.7442
vn -0.3121 0.1695 0.9348
vn 0.0694 0.1695 0.9831
vn 0.4404 0.1695 0.8817
vn 0.7442 0.1695 0.6460
vn 0.9348 0.1695 0.3121
vn 0.9831 0.1695 -0.0694
vn 0.8817 0.1695 -0.4404
vn 0.6460 0.1695 -0.7442
vn 0.3123 0.1695 -0.9348
vn -0.0694 0.1695 -0.9831
vn 0.3119 0.1695 -0.9349
vn -0.4404 0.1695 -0.8817
vn -0.5338 0.1695 -0.8284
vn -0.1762 0.1695 -0.9697
vn 0.2083 0.1695 -0.9633
vn -0.8102 0.1695 -0.5610
vn -0.9633 0.1695 -0.2083
vn -0.9697 0.1695 0.1762
vn -0.8284 0.1695 0.5338
vn -0.5610 0.1695 0.8102
vn -0.2083 0.1695 0.9633
vn 0.1762 0.1695 0.9697
vn 0.5338 0.1695 0.8284
vn 0.8102 0.1695 0.5610
vn 0.9633 0.1695 0.2083
vn 0.9697 0.1695 -0.1759
vn 0.8284 0.1695 -0.5338
vn 0.9696 0.1695 -0.1764
vn 0.5610 0.1695 -0.8102
vn -0.8947 0.1695 -0.4132
vn -0.6685 0.1695 -0.7241
vn -0.3405 0.1695 -0.9248
vn -0.9847 0.1695 -0.0393
vn -0.9248 0.1695 0.3405
vn -0.7241 0.1695 0.6685
vn -0.4132 0.1695 0.8947
vn -0.0393 0.1695 0.9847
vn 0.3405 0.1695 0.9248
vn 0.6685 0.1695 0.7241
vn 0.8947 0.1695 0.4132
vn 0.9847 0.1695 0.0394
vn 0.9248 0.1695 -0.3405
vn 0.7243 0.1695 -0.6684
vn 0.4132 0.1695 -0.8947
vn 0.7240 0.1695 -0.6686
vn 0.0393 0.1695 -0.9847
vn -0.3247 0.1695 0.9305
vn -0.6560 0.1695 0.7354
vn -0.8875 0.1695 0.4284
vn 0.0561 0.1695 0.9839
vn 0.4284 0.1695 0.8875
vn 0.7354 0.1695 0.6560
vn 0.9305 0.1695 0.3247
vn 0.9839 0.1695 -0.0561
vn 0.8875 0.1695 -0.4284
vn 0.6560 0.1695 -0.7354
vn 0.3247 0.1695 -0.9305
vn -0.0561 0.1695 -0.9839
vn -0.4284 0.1695 -0.8875
vn -0.7353 0.1695 -0.6562
vn -0.9305 0.1695 -0.3247
vn -0.7356 0.1695 -0.6559
vn -0.9839 0.1695 0.0561
vn -0.9819 0.1695 -0.0840
vn -0.8750 0.1695 -0.4534
vn -0.6349 0.1695 -0.7537
vn -0.9393 0.1695 0.2982
vn -0.7537 0.1695 0.6349
vn -0.4534 0.1695 0.8750
vn -0.0840 0.1695 0.9819
vn 0.2982 0.1695 0.9393
vn 0.6349 0.1695 0.7537
vn 0.8750 0.1695 0.4534
vn 0.9819 0.1695 0.0840
vn 0.9393 0.1695 -0.2982
vn 0.7537 0.1695 -0.6349
vn 0.4535 0.1695 -0.8750
vn 0.0840 0.1695 -0.9819
vn 0.4532 0.1695 -0.8752
vn -0.2982 0.1695 -0.9393
vn -0.8419 0.1695 0.5123
vn -0.9739 0.1695 0.1511
vn -0.9576 0.1695 -0.2330
vn -0.5817 0.1695 0.7955
vn -0.2330 0.1695 0.9576
vn 0.1511 0.1695 0.9739
vn 0.5123 0.1695 0.8419
vn 0.7955 0.1695 0.5817
vn 0.9576 0.1695 0.2330
vn 0.9739 0.1695 -0.1511
vn 0.8419 0.1695 -0.5123
vn 0.5817 0.1695 -0.7955
vn 0.2330 0.1695 -0.9576
vn -0.1509 0.1695 -0.9739
vn -0.5123 0.1695 -0.8419
vn -0.1513 0.1695 -0.9738
vn -0.7955 0.1695 -0.5817
vn 0.7819 0.1695 0.5999
vn 0.4929 0.1695 0.8534
vn 0.1287 0.1695 0.9771
vn 0.9520 0.1695 0.2550
vn 0.9771 0.1695 -0.1287
vn 0.8534 0.1695 -0.4929
vn 0.5999 0.1695 -0.7819
vn 0.2550 0.1695 -0.9520
vn -0.1287 0.1695 -0.9771
vn -0.4929 0.1695 -0.8534
vn -0.7819 0.1695 -0.5999
vn -0.9520 0.1695 -0.2550
vn -0.9771 0.1695 0.1287
vn -0.8535 0.1695 0.4927
vn -0.5999 0.1695 0.7819
vn -0.8533 0.1695 0.4930
vn -0.2550 0.1695 0.9520
vn -0.1775 0.1695 0.9694
vn -0.5350 0.1695 0.8277
vn -0.8110 0.1695 0.5600
vn 0.2070 0.1695 0.9635
vn 0.5600 0.1695 0.8110
vn 0.8277 0.1695 0.5350
vn 0.9694 0.1695 0.1775
vn 0.9635 0.1695 -0.2070
vn 0.8110 0.1695 -0.5600
vn 0.5350 0.1695 -0.8277
vn 0.1775 0.1695 -0.9694
vn -0.2070 0.1695 -0.9635
vn -0.5600 0.1695 -0.8110
vn -0.8276 0.1695 -0.5351
vn -0.9694 0.1695 -0.1775
vn -0.8278 0.1695 -0.5348
vn -0.9635 0.1695 0.2070
vt 0.792321 0.777505
vt 0.017319 0.002501
vt 0.017318 0.777504
vt 0.823150 0.002501
vt 0.797315 0.777502
vt 0.823149 0.777502
vt 0.859592 0.777506
vt 0.885427 0.002505
vt 0.859594 0.002505
vt 0.916263 0.002503
vt 0.890428 0.777505
vt 0.916262 0.777506
vt 0.828762 0.777501
vt 0.854598 0.002501
vt 0.828764 0.002501
vt 0.792322 0.002502
vt 0.797317 0.002501
vt 0.885426 0.777506
vt 0.890429 0.002503
vt 0.854596 0.777501
vt 0.833360 0.945505
vt 0.684655 0.785990
vt 0.819787 0.957155
vt 0.857421 0.919069
vt 0.845933 0.932781
vt 0.867746 0.904462
vt 0.876840 0.889058
vt 0.884641 0.872961
vt 0.891096 0.856278
vt 0.896162 0.839122
vt 0.899805 0.821609
vt 0.902000 0.803857
vt 0.902733 0.785984
vt 0.757402 0.991577
vt 0.740308 0.996848
vt 0.774006 0.984924
vt 0.790010 0.976931
vt 0.805304 0.967655
vt 0.250486 0.826329
vt 0.385611 0.997499
vt 0.264969 0.815830
vt 0.280263 0.806554
vt 0.236912 0.837979
vt 0.224338 0.850702
vt 0.212850 0.864413
vt 0.202524 0.879020
vt 0.193430 0.894424
vt 0.185629 0.910521
vt 0.179173 0.927204
vt 0.174107 0.944359
vt 0.170463 0.961872
vt 0.168267 0.979624
vt 0.167533 0.997497
vt 0.312872 0.791909
vt 0.329966 0.786639
vt 0.296267 0.798562
vt 0.709820 0.910525
vt 0.509839 0.997504
vt 0.716276 0.927207
vt 0.721343 0.944363
vt 0.702019 0.894428
vt 0.692924 0.879024
vt 0.682598 0.864418
vt 0.671110 0.850706
vt 0.658536 0.837983
vt 0.644962 0.826333
vt 0.630479 0.815835
vt 0.615184 0.806559
vt 0.599181 0.798567
vt 0.582576 0.791915
vt 0.565482 0.786645
vt 0.727182 0.979628
vt 0.727916 0.997501
vt 0.724986 0.961876
vt 0.470090 0.957149
vt 0.334963 0.785980
vt 0.455607 0.967648
vt 0.440312 0.976924
vt 0.483664 0.945499
vt 0.496237 0.932775
vt 0.507725 0.919064
vt 0.518051 0.904457
vt 0.527145 0.889054
vt 0.534946 0.872956
vt 0.541402 0.856273
vt 0.546468 0.839118
vt 0.550111 0.821606
vt 0.552307 0.803853
vt 0.553041 0.785980
vt 0.407704 0.991569
vt 0.390610 0.996839
vt 0.424309 0.984916
vt 0.089477 0.979306
vt 0.002503 0.779323
vt 0.072794 0.985762
vt 0.055639 0.990828
vt 0.105574 0.971506
vt 0.120978 0.962412
vt 0.135585 0.952086
vt 0.149296 0.940598
vt 0.162020 0.928025
vt 0.173670 0.914451
vt 0.184169 0.899968
vt 0.193445 0.884674
vt 0.201437 0.868670
vt 0.208091 0.852066
vt 0.213361 0.834972
vt 0.020373 0.996667
vt 0.002500 0.997400
vt 0.038126 0.994471
s 1
usemtl OPM0041
f 1/1/1 2/2/1 3/3/1
f 4/4/2 5/5/2 6/6/2
f 7/7/3 8/8/3 9/9/3
f 10/10/4 11/11/4 12/12/4
f 13/13/5 14/14/5 15/15/5
f 1/1/1 16/16/1 2/2/1
f 4/4/2 17/17/2 5/5/2
f 7/7/3 18/18/3 8/8/3
f 10/10/4 19/19/4 11/11/4
f 13/13/5 20/20/5 14/14/5
f 21/21/6 22/22/1 23/23/7
f 24/24/8 22/22/1 25/25/9
f 26/26/10 22/22/1 24/24/8
f 27/27/11 22/22/1 26/26/10
f 28/28/12 22/22/1 27/27/11
f 29/29/13 22/22/1 28/28/12
f 30/30/14 22/22/1 29/29/13
f 31/31/15 22/22/1 30/30/14
f 32/32/16 22/22/1 31/31/15
f 33/33/17 22/22/1 32/32/16
f 34/34/18 22/22/1 35/35/19
f 36/36/20 22/22/1 34/34/18
f 37/37/21 22/22/1 36/36/20
f 25/25/9 22/22/1 21/21/6
f 38/38/22 22/22/1 37/37/21
f 23/23/7 22/22/1 38/38/22
f 39/39/23 40/40/1 41/41/24
f 41/41/24 40/40/1 42/42/25
f 43/43/26 40/40/1 39/39/23
f 44/44/27 40/40/1 43/43/26
f 45/45/28 40/40/1 44/44/27
f 46/46/29 40/40/1 45/45/28
f 47/47/30 40/40/1 46/46/29
f 48/48/31 40/40/1 47/47/30
f 49/49/32 40/40/1 48/48/31
f 50/50/33 40/40/1 49/49/32
f 51/51/34 40/40/1 50/50/33
f 52/52/35 40/40/1 51/51/34
f 53/53/36 40/40/1 52/52/35
f 54/54/37 40/40/1 55/55/38
f 56/56/39 40/40/1 54/54/37
f 42/42/25 40/40/1 56/56/39
f 57/57/40 58/58/1 59/59/41
f 59/59/41 58/58/1 60/60/42
f 61/61/43 58/58/1 57/57/40
f 62/62/44 58/58/1 61/61/43
f 63/63/45 58/58/1 62/62/44
f 64/64/46 58/58/1 63/63/45
f 65/65/47 58/58/1 64/64/46
f 66/66/48 58/58/1 65/65/47
f 67/67/49 58/58/1 66/66/48
f 68/68/50 58/58/1 67/67/49
f 69/69/51 58/58/1 68/68/50
f 70/70/52 58/58/1 69/69/51
f 71/71/53 58/58/1 70/70/52
f 72/72/54 58/58/1 73/73/55
f 74/74/56 58/58/1 72/72/54
f 60/60/42 58/58/1 74/74/56
f 75/75/57 76/76/1 77/77/58
f 77/77/58 76/76/1 78/78/59
f 79/79/60 76/76/1 75/75/57
f 80/80/61 76/76/1 79/79/60
f 81/81/62 76/76/1 80/80/61
f 82/82/63 76/76/1 81/81/62
f 83/83/64 76/76/1 82/82/63
f 84/84/65 76/76/1 83/83/64
f 85/85/66 76/76/1 84/84/65
f 86/86/67 76/76/1 85/85/66
f 87/87/68 76/76/1 86/86/67
f 88/88/69 76/76/1 87/87/68
f 89/89/70 76/76/1 88/88/69
f 90/90/71 76/76/1 91/91/72
f 92/92/73 76/76/1 90/90/71
f 78/78/59 76/76/1 92/92/73
f 93/93/74 94/94/1 95/95/75
f 95/95/75 94/94/1 96/96/76
f 97/97/77 94/94/1 93/93/74
f 98/98/78 94/94/1 97/97/77
f 99/99/79 94/94/1 98/98/78
f 100/100/80 94/94/1 99/99/79
f 101/101/81 94/94/1 100/100/80
f 102/102/82 94/94/1 101/101/81
f 103/103/83 94/94/1 102/102/82
f 104/104/84 94/94/1 103/103/83
f 105/105/85 94/94/1 104/104/84
f 106/106/86 94/94/1 105/105/85
f 107/107/87 94/94/1 106/106/86
f 108/108/88 94/94/1 109/109/89
f 110/110/90 94/94/1 108/108/88
f 96/96/76 94/94/1 110/110/90
f 111/21/91 112/22/1 113/23/92
f 114/24/93 112/22/1 115/25/94
f 116/26/95 112/22/1 114/24/93
f 117/27/96 112/22/1 116/26/95
f 118/28/97 112/22/1 117/27/96
f 119/29/98 112/22/1 118/28/97
f 120/30/99 112/22/1 119/29/98
f 121/31/100 112/22/1 120/30/99
f 122/32/101 112/22/1 121/31/100
f 123/33/102 112/22/1 122/32/101
f 124/34/103 112/22/1 125/35/104
f 126/36/105 112/22/1 124/34/103
f 127/37/106 112/22/1 126/36/105
f 115/25/94 112/22/1 111/21/91
f 128/38/107 112/22/1 127/37/106
f 113/23/92 112/22/1 128/38/107
f 129/21/108 130/22/1 131/23/109
f 132/24/110 130/22/1 133/25/111
f 134/26/112 130/22/1 132/24/110
f 135/27/113 130/22/1 134/26/112
f 136/28/114 130/22/1 135/27/113
f 137/29/115 130/22/1 136/28/114
f 138/30/116 130/22/1 137/29/115
f 139/31/117 130/22/1 138/30/116
f 140/32/118 130/22/1 139/31/117
f 141/33/119 130/22/1 140/32/118
f 142/34/120 130/22/1 143/35/121
f 144/36/122 130/22/1 142/34/120
f 145/37/123 130/22/1 144/36/122
f 133/25/111 130/22/1 129/21/108
f 146/38/124 130/22/1 145/37/123
f 131/23/109 130/22/1 146/38/124
f 147/21/125 148/22/1 149/23/126
f 150/24/127 148/22/1 151/25/128
f 152/26/129 148/22/1 150/24/127
f 153/27/130 148/22/1 152/26/129
f 154/28/131 148/22/1 153/27/130
f 155/29/132 148/22/1 154/28/131
f 156/30/133 148/22/1 155/29/132
f 157/31/134 148/22/1 156/30/133
f 158/32/135 148/22/1 157/31/134
f 159/33/136 148/22/1 158/32/135
f 160/34/137 148/22/1 161/35/138
f 162/36/139 148/22/1 160/34/137
f 163/37/140 148/22/1 162/36/139
f 151/25/128 148/22/1 147/21/125
f 164/38/141 148/22/1 163/37/140
f 149/23/126 148/22/1 164/38/141
f 165/21/142 166/22/1 167/23/143
f 168/24/144 166/22/1 169/25/145
f 170/26/146 166/22/1 168/24/144
f 171/27/147 166/22/1 170/26/146
f 172/28/148 166/22/1 171/27/147
f 173/29/149 166/22/1 172/28/148
f 174/30/150 166/22/1 173/29/149
f 175/31/151 166/22/1 174/30/150
f 176/32/152 166/22/1 175/31/151
f 177/33/153 166/22/1 176/32/152
f 178/34/154 166/22/1 179/35/155
f 180/36/156 166/22/1 178/34/154
f 181/37/157 166/22/1 180/36/156
f 169/25/145 166/22/1 165/21/142
f 182/38/158 166/22/1 181/37/157
f 167/23/143 166/22/1 182/38/158
f 183/39/159 184/40/1 185/41/160
f 185/41/160 184/40/1 186/42/161
f 187/43/162 184/40/1 183/39/159
f 188/44/163 184/40/1 187/43/162
f 189/45/164 184/40/1 188/44/163
f 190/46/165 184/40/1 189/45/164
f 191/47/166 184/40/1 190/46/165
f 192/48/167 184/40/1 191/47/166
f 193/49/168 184/40/1 192/48/167
f 194/50/169 184/40/1 193/49/168
f 195/51/170 184/40/1 194/50/169
f 196/52/171 184/40/1 195/51/170
f 197/53/172 184/40/1 196/52/171
f 198/54/173 184/40/1 199/55/174
f 200/56/175 184/40/1 198/54/173
f 186/42/161 184/40/1 200/56/175
f 201/39/176 202/40/1 203/41/177
f 203/41/177 202/40/1 204/42/178
f 205/43/179 202/40/1 201/39/176
f 206/44/180 202/40/1 205/43/179
f 207/45/181 202/40/1 206/44/180
f 208/46/182 202/40/1 207/45/181
f 209/47/183 202/40/1 208/46/182
f 210/48/184 202/40/1 209/47/183
f 211/49/185 202/40/1 210/48/184
f 212/50/186 202/40/1 211/49/185
f 213/51/187 202/40/1 212/50/186
f 214/52/188 202/40/1 213/51/187
f 215/53/189 202/40/1 214/52/188
f 216/54/190 202/40/1 217/55/191
f 218/56/192 202/40/1 216/54/190
f 204/42/178 202/40/1 218/56/192
f 219/39/193 220/40/1 221/41/194
f 221/41/194 220/40/1 222/42/195
f 223/43/196 220/40/1 219/39/193
f 224/44/197 220/40/1 223/43/196
f 225/45/198 220/40/1 224/44/197
f 226/46/199 220/40/1 225/45/198
f 227/47/200 220/40/1 226/46/199
f 228/48/201 220/40/1 227/47/200
f 229/49/202 220/40/1 228/48/201
f 230/50/203 220/40/1 229/49/202
f 231/51/204 220/40/1 230/50/203
f 232/52/205 220/40/1 231/51/204
f 233/53/206 220/40/1 232/52/205
f 234/54/207 220/40/1 235/55/208
f 236/56/209 220/40/1 234/54/207
f 222/42/195 220/40/1 236/56/209
f 237/39/210 238/40/1 239/41/211
f 239/41/211 238/40/1 240/42/212
f 241/43/213 238/40/1 237/39/210
f 242/44/214 238/40/1 241/43/213
f 243/45/215 238/40/1 242/44/214
f 244/46/216 238/40/1 243/45/215
f 245/47/217 238/40/1 244/46/216
f 246/48/218 238/40/1 245/47/217
f 247/49/219 238/40/1 246/48/218
f 248/50/220 238/40/1 247/49/219
f 249/51/221 238/40/1 248/50/220
f 250/52/222 238/40/1 249/51/221
f 251/53/223 238/40/1 250/52/222
f 252/54/224 238/40/1 253/55/225
f 254/56/226 238/40/1 252/54/224
f 240/42/212 238/40/1 254/56/226
f 255/57/227 256/58/1 257/59/228
f 257/59/228 256/58/1 258/60/229
f 259/61/230 256/58/1 255/57/227
f 260/62/231 256/58/1 259/61/230
f 261/63/232 256/58/1 260/62/231
f 262/64/233 256/58/1 261/63/232
f 263/65/234 256/58/1 262/64/233
f 264/66/235 256/58/1 263/65/234
f 265/67/236 256/58/1 264/66/235
f 266/68/237 256/58/1 265/67/236
f 267/69/238 256/58/1 266/68/237
f 268/70/239 256/58/1 267/69/238
f 269/71/240 256/58/1 268/70/239
f 270/72/241 256/58/1 271/73/242
f 272/74/243 256/58/1 270/72/241
f 258/60/229 256/58/1 272/74/243
f 273/57/244 274/58/1 275/59/245
f 275/59/245 274/58/1 276/60/246
f 277/61/247 274/58/1 273/57/244
f 278/62/248 274/58/1 277/61/247
f 279/63/249 274/58/1 278/62/248
f 280/64/250 274/58/1 279/63/249
f 281/65/251 274/58/1 280/64/250
f 282/66/252 274/58/1 281/65/251
f 283/67/253 274/58/1 282/66/252
f 284/68/254 274/58/1 283/67/253
f 285/69/255 274/58/1 284/68/254
f 286/70/256 274/58/1 285/69/255
f 287/71/257 274/58/1 286/70/256
f 288/72/258 274/58/1 289/73/259
f 290/74/260 274/58/1 288/72/258
f 276/60/246 274/58/1 290/74/260
f 291/57/261 292/58/1 293/59/262
f 293/59/262 292/58/1 294/60/263
f 295/61/264 292/58/1 291/57/261
f 296/62/265 292/58/1 295/61/264
f 297/63/266 292/58/1 296/62/265
f 298/64/267 292/58/1 297/63/266
f 299/65/268 292/58/1 298/64/267
f 300/66/269 292/58/1 299/65/268
f 301/67/270 292/58/1 300/66/269
f 302/68/271 292/58/1 301/67/270
f 303/69/272 292/58/1 302/68/271
f 304/70/273 292/58/1 303/69/272
f 305/71/274 292/58/1 304/70/273
f 306/72/275 292/58/1 307/73/276
f 308/74/277 292/58/1 306/72/275
f 294/60/263 292/58/1 308/74/277
f 309/57/278 310/58/1 311/59/279
f 311/59/279 310/58/1 312/60/280
f 313/61/281 310/58/1 309/57/278
f 314/62/282 310/58/1 313/61/281
f 315/63/283 310/58/1 314/62/282
f 316/64/284 310/58/1 315/63/283
f 317/65/285 310/58/1 316/64/284
f 318/66/286 310/58/1 317/65/285
f 319/67/287 310/58/1 318/66/286
f 320/68/288 310/58/1 319/67/287
f 321/69/289 310/58/1 320/68/288
f 322/70/290 310/58/1 321/69/289
f 323/71/291 310/58/1 322/70/290
f 324/72/292 310/58/1 325/73/293
f 326/74/294 310/58/1 324/72/292
f 312/60/280 310/58/1 326/74/294
f 327/75/295 328/76/1 329/77/296
f 329/77/296 328/76/1 330/78/297
f 331/79/298 328/76/1 327/75/295
f 332/80/299 328/76/1 331/79/298
f 333/81/300 328/76/1 332/80/299
f 334/82/301 328/76/1 333/81/300
f 335/83/302 328/76/1 334/82/301
f 336/84/303 328/76/1 335/83/302
f 337/85/304 328/76/1 336/84/303
f 338/86/305 328/76/1 337/85/304
f 339/87/306 328/76/1 338/86/305
f 340/88/307 328/76/1 339/87/306
f 341/89/308 328/76/1 340/88/307
f 342/90/309 328/76/1 343/91/310
f 344/92/311 328/76/1 342/90/309
f 330/78/297 328/76/1 344/92/311
f 345/75/312 346/76/1 347/77/313
f 347/77/313 346/76/1 348/78/314
f 349/79/315 346/76/1 345/75/312
f 350/80/316 346/76/1 349/79/315
f 351/81/317 346/76/1 350/80/316
f 352/82/318 346/76/1 351/81/317
f 353/83/319 346/76/1 352/82/318
f 354/84/320 346/76/1 353/83/319
f 355/85/321 346/76/1 354/84/320
f 356/86/322 346/76/1 355/85/321
f 357/87/323 346/76/1 356/86/322
f 358/88/324 346/76/1 357/87/323
f 359/89/325 346/76/1 358/88/324
f 360/90/326 346/76/1 361/91/327
f 362/92/328 346/76/1 360/90/326
f 348/78/314 346/76/1 362/92/328
f 363/75/329 364/76/1 365/77/330
f 365/77/330 364/76/1 366/78/331
f 367/79/332 364/76/1 363/75/329
f 368/80/333 364/76/1 367/79/332
f 369/81/334 364/76/1 368/80/333
f 370/82/335 364/76/1 369/81/334
f 371/83/336 364/76/1 370/82/335
f 372/84/337 364/76/1 371/83/336
f 373/85/338 364/76/1 372/84/337
f 374/86/339 364/76/1 373/85/338
f 375/87/340 364/76/1 374/86/339
f 376/88/341 364/76/1 375/87/340
f 377/89/342 364/76/1 376/88/341
f 378/90/343 364/76/1 379/91/344
f 380/92/345 364/76/1 378/90/343
f 366/78/331 364/76/1 380/92/345
f 381/75/346 382/76/1 383/77/347
f 383/77/347 382/76/1 384/78/348
f 385/79/349 382/76/1 381/75/346
f 386/80/350 382/76/1 385/79/349
f 387/81/351 382/76/1 386/80/350
f 388/82/352 382/76/1 387/81/351
f 389/83/353 382/76/1 388/82/352
f 390/84/354 382/76/1 389/83/353
f 391/85/355 382/76/1 390/84/354
f 392/86/356 382/76/1 391/85/355
f 393/87/357 382/76/1 392/86/356
f 394/88/358 382/76/1 393/87/357
f 395/89/359 382/76/1 394/88/358
f 396/90/360 382/76/1 397/91/361
f 398/92/362 382/76/1 396/90/360
f 384/78/348 382/76/1 398/92/362
f 399/93/363 400/94/1 401/95/364
f 401/95/364 400/94/1 402/96/365
f 403/97/366 400/94/1 399/93/363
f 404/98/367 400/94/1 403/97/366
f 405/99/368 400/94/1 404/98/367
f 406/100/369 400/94/1 405/99/368
f 407/101/370 400/94/1 406/100/369
f 408/102/371 400/94/1 407/101/370
f 409/103/372 400/94/1 408/102/371
f 410/104/373 400/94/1 409/103/372
f 411/105/374 400/94/1 410/104/373
f 412/106/375 400/94/1 411/105/374
f 413/107/376 400/94/1 412/106/375
f 414/108/377 400/94/1 415/109/378
f 416/110/379 400/94/1 414/108/377
f 402/96/365 400/94/1 416/110/379
f 417/93/380 418/94/1 419/95/381
f 419/95/381 418/94/1 420/96/382
f 421/97/383 418/94/1 417/93/380
f 422/98/384 418/94/1 421/97/383
f 423/99/385 418/94/1 422/98/384
f 424/100/386 418/94/1 423/99/385
f 425/101/387 418/94/1 424/100/386
f 426/102/388 418/94/1 425/101/387
f 427/103/389 418/94/1 426/102/388
f 428/104/390 418/94/1 427/103/389
f 429/105/391 418/94/1 428/104/390
f 430/106/392 418/94/1 429/105/391
f 431/107/393 418/94/1 430/106/392
f 432/108/394 418/94/1 433/109/395
f 434/110/396 418/94/1 432/108/394
f 420/96/382 418/94/1 434/110/396
f 435/93/397 436/94/1 437/95/398
f 437/95/398 436/94/1 438/96/399
f 439/97/400 436/94/1 435/93/397
f 440/98/401 436/94/1 439/97/400
f 441/99/402 436/94/1 440/98/401
f 442/100/403 436/94/1 441/99/402
f 443/101/404 436/94/1 442/100/403
f 444/102/405 436/94/1 443/101/404
f 445/103/406 436/94/1 444/102/405
f 446/104/407 436/94/1 445/103/406
f 447/105/408 436/94/1 446/104/407
f 448/106/409 436/94/1 447/105/408
f 449/107/410 436/94/1 448/106/409
f 450/108/411 436/94/1 451/109/412
f 452/110/413 436/94/1 450/108/411
f 438/96/399 436/94/1 452/110/413
f 453/93/414 454/94/1 455/95/415
f 455/95/415 454/94/1 456/96/416
f 457/97/417 454/94/1 453/93/414
f 458/98/418 454/94/1 457/97/417
f 459/99/419 454/94/1 458/98/418
f 460/100/420 454/94/1 459/99/419
f 461/101/421 454/94/1 460/100/420
f 462/102/422 454/94/1 461/101/421
f 463/103/423 454/94/1 462/102/422
f 464/104/424 454/94/1 463/103/423
f 465/105/425 454/94/1 464/104/424
f 466/106/426 454/94/1 465/105/425
f 467/107/427 454/94/1 466/106/426
f 468/108/428 454/94/1 469/109/429
f 470/110/430 454/94/1 468/108/428
f 456/96/416 454/94/1 470/110/430
